<svg width="96" height="96" xmlns="http://www.w3.org/2000/svg" xmlns:xlink="http://www.w3.org/1999/xlink" xml:space="preserve" overflow="hidden"><defs><clipPath id="clip0"><rect x="884" y="533" width="96" height="96"/></clipPath></defs><g clip-path="url(#clip0)" transform="translate(-884 -533)"><path d="M912.9 570 963 570 963 565C963 562.8 961.2 561 959 561L929 561 918 553.7C917.3 553.3 916.6 553 915.8 553L897 553C894.8 553 893 554.8 893 557L893 606C893 606.2 905.9 574.7 905.9 574.7 907.1 571.9 909.8 570 912.9 570Z" fill="#FFC000"/><path d="M971 578C971 575.9 969.5 574.2 967.4 574L912.9 574C911.4 574 910.1 574.9 909.5 576.2L896 609 957 609 970.6 579.8C970.9 579.2 971 578.6 971 578L971 578Z" fill="#FFC000"/></g></svg>